<svg width="14" height="14" viewBox="0 0 14 14" fill="none" xmlns="http://www.w3.org/2000/svg">
<path fill-rule="evenodd" clip-rule="evenodd" d="M13.343 3.95399C13.2093 4.00196 13.0647 4.01098 12.9261 3.98C12.7875 3.94902 12.6605 3.87931 12.56 3.77899L12.008 3.22599L7.81099 7.42299C7.74134 7.49269 7.65864 7.54798 7.56762 7.5857C7.47659 7.62342 7.37903 7.64283 7.28049 7.64283C7.18196 7.64283 7.0844 7.62342 6.99337 7.5857C6.90234 7.54798 6.81964 7.49269 6.74999 7.42299L5.14899 5.82199L1.33499 9.63599C1.26577 9.70759 1.18299 9.76469 1.09147 9.80395C0.999946 9.84322 0.901522 9.86386 0.801937 9.86468C0.702353 9.86549 0.603603 9.84647 0.511449 9.80872C0.419295 9.77096 0.335582 9.71523 0.265196 9.64478C0.19481 9.57433 0.13916 9.49056 0.101493 9.39837C0.0638257 9.30618 0.0448958 9.20742 0.0458078 9.10783C0.0467198 9.00825 0.0674554 8.90984 0.106805 8.81836C0.146154 8.72688 0.203329 8.64414 0.274993 8.57499L4.61699 4.22999C4.68664 4.1603 4.76934 4.10501 4.86037 4.06729C4.9514 4.02957 5.04896 4.01015 5.14749 4.01015C5.24603 4.01015 5.34359 4.02957 5.43462 4.06729C5.52564 4.10501 5.60834 4.1603 5.67799 4.22999L7.27999 5.83199L10.947 2.16499L10.395 1.61299C10.2945 1.5126 10.2245 1.38572 10.1933 1.24712C10.1621 1.10852 10.1709 0.963911 10.2187 0.830117C10.2665 0.696322 10.3512 0.578849 10.4632 0.491372C10.5751 0.403895 10.7096 0.350011 10.851 0.335994C11.764 0.245994 12.289 0.245994 13.168 0.335994C13.3395 0.353731 13.4997 0.430045 13.6216 0.552083C13.7434 0.67412 13.8195 0.834424 13.837 1.00599C13.928 1.88399 13.927 2.40999 13.837 3.32199C13.8229 3.4633 13.769 3.59771 13.6816 3.70959C13.5941 3.82147 13.4767 3.90622 13.343 3.95399ZM11.72 5.46199C11.8333 5.35212 11.9784 5.28079 12.1346 5.25817C12.2908 5.23555 12.4502 5.26278 12.59 5.33599L13.562 5.84599C13.6878 5.91219 13.7921 6.01275 13.863 6.13597C13.9338 6.25919 13.9681 6.4 13.962 6.54199L13.686 13.13C13.678 13.3235 13.5955 13.5064 13.4557 13.6404C13.3159 13.7744 13.1296 13.8492 12.936 13.849H10.964C10.8977 13.849 10.8341 13.8227 10.7872 13.7758C10.7403 13.7289 10.714 13.6653 10.714 13.599V6.54299C10.7139 6.50943 10.7206 6.47619 10.7337 6.44526C10.7467 6.41434 10.7659 6.38636 10.79 6.36299L11.72 5.46199ZM9.46399 13.599C9.46399 13.6653 9.43765 13.7289 9.39077 13.7758C9.34389 13.8227 9.2803 13.849 9.21399 13.849H5.46399C5.39769 13.849 5.3341 13.8227 5.28722 13.7758C5.24033 13.7289 5.21399 13.6653 5.21399 13.599V7.78499C5.21399 7.76499 5.22899 7.74899 5.24899 7.75099C5.41199 7.75899 5.57199 7.82099 5.70399 7.93599L7.34899 9.37999C7.39616 9.42151 7.45724 9.44374 7.52006 9.44225C7.58288 9.44077 7.64283 9.41569 7.68799 9.37199L9.03999 8.05999C9.07529 8.02578 9.11989 8.00273 9.16821 7.99373C9.21653 7.98473 9.26644 7.99017 9.31169 8.00938C9.35693 8.02859 9.39551 8.06071 9.4226 8.10173C9.44969 8.14275 9.46409 8.19084 9.46399 8.23999V13.599ZM3.53499 9.13599L0.424993 12.312C0.287351 12.4521 0.210156 12.6406 0.209993 12.837V13.099C0.209993 13.513 0.545993 13.849 0.959993 13.849H3.71399C3.7803 13.849 3.84389 13.8227 3.89077 13.7758C3.93765 13.7289 3.96399 13.6653 3.96399 13.599V9.31099C3.96409 9.26124 3.94933 9.21259 3.92162 9.17126C3.89391 9.12994 3.85449 9.09783 3.80842 9.07904C3.76235 9.06024 3.71172 9.05562 3.66301 9.06577C3.6143 9.07592 3.56973 9.10037 3.53499 9.13599Z" fill="black"/>
</svg>
