<svg width="16" height="16" viewBox="0 0 16 16" fill="none" xmlns="http://www.w3.org/2000/svg">
<path fill-rule="evenodd" clip-rule="evenodd" d="M7.29303 0.293031C7.48056 0.105559 7.73487 0.000244141 8.00003 0.000244141C8.2652 0.000244141 8.5195 0.105559 8.70703 0.293031L15.707 7.29303C15.8468 7.43288 15.942 7.61105 15.9806 7.805C16.0192 7.99895 15.9994 8.19998 15.9237 8.38268C15.848 8.56538 15.7199 8.72155 15.5555 8.83143C15.3911 8.94132 15.1978 8.99999 15 9.00003H14V15C14 15.2652 13.8947 15.5196 13.7071 15.7071C13.5196 15.8947 13.2652 16 13 16H11C10.7348 16 10.4805 15.8947 10.2929 15.7071C10.1054 15.5196 10 15.2652 10 15V12C10 11.7348 9.89467 11.4805 9.70714 11.2929C9.5196 11.1054 9.26525 11 9.00003 11H7.00003C6.73481 11 6.48046 11.1054 6.29292 11.2929C6.10539 11.4805 6.00003 11.7348 6.00003 12V15C6.00003 15.2652 5.89467 15.5196 5.70714 15.7071C5.5196 15.8947 5.26525 16 5.00003 16H3.00003C2.73481 16 2.48046 15.8947 2.29292 15.7071C2.10539 15.5196 2.00003 15.2652 2.00003 15V9.00003H1.00003C0.802281 8.99999 0.608982 8.94132 0.444573 8.83143C0.280163 8.72155 0.152023 8.56538 0.0763531 8.38268C0.000683092 8.19998 -0.0191199 7.99895 0.0194476 7.805C0.0580152 7.61105 0.153222 7.43288 0.293031 7.29303L7.29303 0.293031Z" fill="white"/>
</svg>
